<?xml version="1.0" encoding="UTF-8"?>
<svg width="226px" height="363px" viewBox="0 0 226 363" version="1.1" xmlns="http://www.w3.org/2000/svg" xmlns:xlink="http://www.w3.org/1999/xlink">
    <!-- Generator: Sketch 55.2 (78181) - https://sketchapp.com -->
    <title>balloon-svgrepo-com</title>
    <desc>Created with Sketch.</desc>
    <g id="Page-1" stroke="none" stroke-width="1" fill="none" fill-rule="evenodd">
        <g id="balloon-svgrepo-com" fill-rule="nonzero">
            <path d="M112,280 C108.666667,295.333333 107.333333,308 108,318 C108.371939,323.579079 116,335 122,343 C124,345.666667 123,352.333333 119,363 L122,363 C125.333333,355 126.333333,348.333333 125,343 C123,335 113,328 111,318 C109.666667,311.333333 111.333333,298.666667 116,280 L112,280 Z" id="Path" fill="#A0D9DC"></path>
            <path d="M106.234,255.128 C91.473,280.939 91.473,280.939 91.473,280.939 L109.594,280.939 L116.325,280.939 L134.439,280.939 C134.439,280.939 134.439,280.939 119.682,255.128 L106.234,255.128 Z" id="Path" fill="#00A79E"></path>
            <path d="M125.62,260.187 C217.263,204.641 225.596,139.388 225.596,124.107 C225.596,-0.86 112.789,0.523350097 112.789,0.523350097 C112.789,0.523350097 0.313,-0.86 0.313,124.107 C0.313,139.388 8.653,204.641 100.3,260.187 L125.62,260.187 Z" id="Path" fill="#15B5AC"></path>
            <path d="M22.022,130.554 C3.538,112.085 23.826,60.939 42.295,42.462 C60.768,23.985 105.497,6.463 123.959,24.924 C142.436,43.405 40.499,149.023 22.022,130.554 Z" id="Path" fill="#A0D9DC"></path>
        </g>
    </g>
</svg>